<svg width="1621" height="1049" viewBox="0 0 1621 1049" fill="none" xmlns="http://www.w3.org/2000/svg">
<path d="M5 96.0982C106 9.13657 421.5 -10.8507 617.5 29.1589C720.98 47.8026 816.595 82.766 879 144.707C1036.6 301.134 692 506.185 485.5 585.946C296.5 631.921 54.9539 785.375 650.5 955.407C1241 1124 1563 999.765 1614.5 924.14" stroke="#69C7ED" stroke-width="15" stroke-dasharray="30 30"/>
<path d="M212 23.7144C305.515 15.0534 439.564 -6.83548 586 23.7148C710.566 49.7024 822.755 68.5466 896.5 173.875C1000.5 322.416 694.5 506.606 458 597.353C264.93 651.022 82.5837 794.174 678 961.014C1119.4 1084.7 1356 1038.11 1488.5 998.143C1533.01 978.405 1577.23 961.695 1596.5 945.208" stroke="#25215C" stroke-width="15" stroke-dasharray="30 30"/>
</svg>
