<svg width="699" height="598" viewBox="0 0 699 598" fill="none" xmlns="http://www.w3.org/2000/svg">
<rect width="699" height="598" fill="black" fill-opacity="0.6"/>
<path d="M45.316 443V408.992H65.856V414.088H51.348V423.708H63.724V428.804H51.348V443H45.316ZM75.6129 443.624C73.3942 443.624 71.5742 442.931 70.1529 441.544C68.7662 440.157 68.0729 438.355 68.0729 436.136C68.0729 433.397 69.2689 431.283 71.6609 429.792C74.0529 428.267 77.8662 427.227 83.1009 426.672C83.0662 425.32 82.7022 424.159 82.0089 423.188C81.3502 422.183 80.1542 421.68 78.4209 421.68C77.1729 421.68 75.9422 421.923 74.7289 422.408C73.5502 422.893 72.3889 423.483 71.2449 424.176L69.0609 420.172C70.4822 419.271 72.0769 418.491 73.8449 417.832C75.6476 417.173 77.5542 416.844 79.5649 416.844C82.7542 416.844 85.1289 417.797 86.6889 419.704C88.2836 421.576 89.0809 424.297 89.0809 427.868V443H84.1409L83.7249 440.192H83.5169C82.3729 441.163 81.1422 441.977 79.8249 442.636C78.5422 443.295 77.1382 443.624 75.6129 443.624ZM77.5369 438.944C78.5769 438.944 79.5129 438.701 80.3449 438.216C81.2116 437.696 82.1302 437.003 83.1009 436.136V430.416C79.6342 430.867 77.2249 431.543 75.8729 432.444C74.5209 433.311 73.8449 434.385 73.8449 435.668C73.8449 436.812 74.1916 437.644 74.8849 438.164C75.5782 438.684 76.4622 438.944 77.5369 438.944ZM106.897 443.624C104.575 443.624 102.477 443.104 100.605 442.064C98.7681 440.989 97.2947 439.464 96.1854 437.488C95.1107 435.477 94.5734 433.068 94.5734 430.26C94.5734 427.417 95.1627 425.008 96.3414 423.032C97.5201 421.021 99.0801 419.496 101.021 418.456C102.997 417.381 105.112 416.844 107.365 416.844C108.995 416.844 110.416 417.121 111.629 417.676C112.843 418.231 113.917 418.907 114.853 419.704L111.941 423.604C111.283 423.015 110.607 422.564 109.913 422.252C109.22 421.905 108.475 421.732 107.677 421.732C105.632 421.732 103.951 422.512 102.633 424.072C101.351 425.632 100.709 427.695 100.709 430.26C100.709 432.791 101.333 434.836 102.581 436.396C103.864 437.956 105.511 438.736 107.521 438.736C108.527 438.736 109.463 438.528 110.329 438.112C111.231 437.661 112.045 437.141 112.773 436.552L115.217 440.504C114.039 441.544 112.721 442.324 111.265 442.844C109.809 443.364 108.353 443.624 106.897 443.624ZM120.257 443V417.468H126.237V443H120.257ZM123.273 412.996C122.198 412.996 121.332 412.684 120.673 412.06C120.014 411.436 119.685 410.604 119.685 409.564C119.685 408.559 120.014 407.744 120.673 407.12C121.332 406.496 122.198 406.184 123.273 406.184C124.348 406.184 125.214 406.496 125.873 407.12C126.532 407.744 126.861 408.559 126.861 409.564C126.861 410.604 126.532 411.436 125.873 412.06C125.214 412.684 124.348 412.996 123.273 412.996ZM139.69 443.624C137.576 443.624 136.068 442.983 135.166 441.7C134.3 440.417 133.866 438.667 133.866 436.448V406.288H139.846V436.76C139.846 437.488 139.985 438.008 140.262 438.32C140.54 438.597 140.834 438.736 141.146 438.736C141.285 438.736 141.406 438.736 141.51 438.736C141.649 438.701 141.84 438.667 142.082 438.632L142.862 443.104C142.516 443.243 142.065 443.364 141.51 443.468C140.99 443.572 140.384 443.624 139.69 443.624ZM147.984 443V417.468H153.964V443H147.984ZM151 412.996C149.925 412.996 149.058 412.684 148.4 412.06C147.741 411.436 147.412 410.604 147.412 409.564C147.412 408.559 147.741 407.744 148.4 407.12C149.058 406.496 149.925 406.184 151 406.184C152.074 406.184 152.941 406.496 153.6 407.12C154.258 407.744 154.588 408.559 154.588 409.564C154.588 410.604 154.258 411.436 153.6 412.06C152.941 412.684 152.074 412.996 151 412.996ZM170.589 443.624C167.642 443.624 165.545 442.775 164.297 441.076C163.084 439.343 162.477 437.107 162.477 434.368V422.2H158.837V417.728L162.789 417.468L163.517 410.5H168.509V417.468H175.009V422.2H168.509V434.368C168.509 437.349 169.705 438.84 172.097 438.84C172.548 438.84 173.016 438.788 173.501 438.684C173.986 438.545 174.402 438.407 174.749 438.268L175.789 442.688C175.096 442.931 174.298 443.139 173.397 443.312C172.53 443.52 171.594 443.624 170.589 443.624ZM180.382 443V417.468H186.362V443H180.382ZM183.398 412.996C182.323 412.996 181.457 412.684 180.798 412.06C180.139 411.436 179.81 410.604 179.81 409.564C179.81 408.559 180.139 407.744 180.798 407.12C181.457 406.496 182.323 406.184 183.398 406.184C184.473 406.184 185.339 406.496 185.998 407.12C186.657 407.744 186.986 408.559 186.986 409.564C186.986 410.604 186.657 411.436 185.998 412.06C185.339 412.684 184.473 412.996 183.398 412.996ZM204.911 443.624C202.554 443.624 200.422 443.104 198.515 442.064C196.609 440.989 195.101 439.464 193.991 437.488C192.882 435.477 192.327 433.068 192.327 430.26C192.327 427.487 192.882 425.095 193.991 423.084C195.135 421.073 196.609 419.531 198.411 418.456C200.214 417.381 202.103 416.844 204.079 416.844C206.402 416.844 208.343 417.364 209.903 418.404C211.463 419.409 212.642 420.831 213.439 422.668C214.237 424.471 214.635 426.568 214.635 428.96C214.635 430.208 214.549 431.179 214.375 431.872H198.151C198.429 434.125 199.243 435.876 200.595 437.124C201.947 438.372 203.646 438.996 205.691 438.996C206.801 438.996 207.823 438.84 208.759 438.528C209.73 438.181 210.683 437.713 211.619 437.124L213.647 440.868C212.434 441.665 211.082 442.324 209.591 442.844C208.101 443.364 206.541 443.624 204.911 443.624ZM198.099 427.816H209.435C209.435 425.84 209.002 424.297 208.135 423.188C207.269 422.044 205.969 421.472 204.235 421.472C202.745 421.472 201.41 422.027 200.231 423.136C199.087 424.211 198.377 425.771 198.099 427.816ZM227.471 443.624C225.737 443.624 224.004 443.295 222.271 442.636C220.537 441.943 219.047 441.093 217.799 440.088L220.607 436.24C221.751 437.107 222.895 437.8 224.039 438.32C225.183 438.84 226.396 439.1 227.679 439.1C229.065 439.1 230.088 438.805 230.747 438.216C231.405 437.627 231.735 436.899 231.735 436.032C231.735 435.304 231.457 434.715 230.903 434.264C230.383 433.779 229.707 433.363 228.875 433.016C228.043 432.635 227.176 432.271 226.275 431.924C225.165 431.508 224.056 431.005 222.947 430.416C221.872 429.792 220.988 429.012 220.295 428.076C219.601 427.105 219.255 425.909 219.255 424.488C219.255 422.235 220.087 420.397 221.751 418.976C223.415 417.555 225.668 416.844 228.511 416.844C230.313 416.844 231.925 417.156 233.347 417.78C234.768 418.404 235.999 419.115 237.039 419.912L234.283 423.552C233.381 422.893 232.463 422.373 231.527 421.992C230.625 421.576 229.672 421.368 228.667 421.368C227.384 421.368 226.431 421.645 225.807 422.2C225.183 422.72 224.871 423.379 224.871 424.176C224.871 425.181 225.391 425.944 226.431 426.464C227.471 426.984 228.684 427.487 230.071 427.972C231.249 428.388 232.393 428.908 233.503 429.532C234.612 430.121 235.531 430.901 236.259 431.872C237.021 432.843 237.403 434.125 237.403 435.72C237.403 437.904 236.553 439.776 234.855 441.336C233.156 442.861 230.695 443.624 227.471 443.624ZM253.671 443V408.992H260.483L266.515 425.632C266.897 426.707 267.261 427.816 267.607 428.96C267.989 430.069 268.353 431.179 268.699 432.288H268.907C269.289 431.179 269.653 430.069 269.999 428.96C270.346 427.816 270.693 426.707 271.039 425.632L276.915 408.992H283.779V443H278.215V427.452C278.215 426.377 278.25 425.216 278.319 423.968C278.423 422.685 278.527 421.403 278.631 420.12C278.77 418.837 278.891 417.676 278.995 416.636H278.787L276.031 424.54L270.467 439.828H266.879L261.263 424.54L258.559 416.636H258.351C258.455 417.676 258.559 418.837 258.663 420.12C258.802 421.403 258.906 422.685 258.975 423.968C259.079 425.216 259.131 426.377 259.131 427.452V443H253.671ZM298.086 443.624C295.867 443.624 294.047 442.931 292.626 441.544C291.239 440.157 290.546 438.355 290.546 436.136C290.546 433.397 291.742 431.283 294.134 429.792C296.526 428.267 300.339 427.227 305.574 426.672C305.539 425.32 305.175 424.159 304.482 423.188C303.823 422.183 302.627 421.68 300.894 421.68C299.646 421.68 298.415 421.923 297.202 422.408C296.023 422.893 294.862 423.483 293.718 424.176L291.534 420.172C292.955 419.271 294.55 418.491 296.318 417.832C298.12 417.173 300.027 416.844 302.038 416.844C305.227 416.844 307.602 417.797 309.162 419.704C310.756 421.576 311.554 424.297 311.554 427.868V443H306.614L306.198 440.192H305.99C304.846 441.163 303.615 441.977 302.298 442.636C301.015 443.295 299.611 443.624 298.086 443.624ZM300.01 438.944C301.05 438.944 301.986 438.701 302.818 438.216C303.684 437.696 304.603 437.003 305.574 436.136V430.416C302.107 430.867 299.698 431.543 298.346 432.444C296.994 433.311 296.318 434.385 296.318 435.668C296.318 436.812 296.664 437.644 297.358 438.164C298.051 438.684 298.935 438.944 300.01 438.944ZM318.71 443V417.468H323.65L324.066 420.9H324.274C325.418 419.791 326.666 418.837 328.018 418.04C329.37 417.243 330.913 416.844 332.646 416.844C335.385 416.844 337.378 417.728 338.626 419.496C339.874 421.264 340.498 423.76 340.498 426.984V443H334.518V427.764C334.518 425.649 334.206 424.159 333.582 423.292C332.958 422.425 331.935 421.992 330.514 421.992C329.405 421.992 328.417 422.269 327.55 422.824C326.718 423.344 325.765 424.124 324.69 425.164V443H318.71ZM353.996 443.624C351.777 443.624 349.957 442.931 348.536 441.544C347.149 440.157 346.456 438.355 346.456 436.136C346.456 433.397 347.652 431.283 350.044 429.792C352.436 428.267 356.249 427.227 361.484 426.672C361.449 425.32 361.085 424.159 360.392 423.188C359.733 422.183 358.537 421.68 356.804 421.68C355.556 421.68 354.325 421.923 353.112 422.408C351.933 422.893 350.772 423.483 349.628 424.176L347.444 420.172C348.865 419.271 350.46 418.491 352.228 417.832C354.03 417.173 355.937 416.844 357.948 416.844C361.137 416.844 363.512 417.797 365.072 419.704C366.666 421.576 367.464 424.297 367.464 427.868V443H362.524L362.108 440.192H361.9C360.756 441.163 359.525 441.977 358.208 442.636C356.925 443.295 355.521 443.624 353.996 443.624ZM355.92 438.944C356.96 438.944 357.896 438.701 358.728 438.216C359.594 437.696 360.513 437.003 361.484 436.136V430.416C358.017 430.867 355.608 431.543 354.256 432.444C352.904 433.311 352.228 434.385 352.228 435.668C352.228 436.812 352.574 437.644 353.268 438.164C353.961 438.684 354.845 438.944 355.92 438.944ZM383.512 454.284C381.502 454.284 379.682 454.041 378.052 453.556C376.458 453.071 375.192 452.325 374.256 451.32C373.355 450.349 372.904 449.119 372.904 447.628C372.904 445.513 374.118 443.693 376.544 442.168V441.96C375.886 441.544 375.331 440.989 374.88 440.296C374.464 439.603 374.256 438.736 374.256 437.696C374.256 436.691 374.534 435.789 375.088 434.992C375.678 434.16 376.336 433.484 377.064 432.964V432.756C376.198 432.097 375.418 431.179 374.724 430C374.066 428.821 373.736 427.487 373.736 425.996C373.736 424.02 374.204 422.356 375.14 421.004C376.076 419.652 377.307 418.629 378.832 417.936C380.392 417.208 382.056 416.844 383.824 416.844C384.518 416.844 385.176 416.913 385.8 417.052C386.459 417.156 387.048 417.295 387.568 417.468H396.72V421.888H392.04C392.456 422.373 392.803 422.997 393.08 423.76C393.358 424.488 393.496 425.303 393.496 426.204C393.496 428.076 393.063 429.671 392.196 430.988C391.33 432.271 390.168 433.241 388.712 433.9C387.256 434.559 385.627 434.888 383.824 434.888C383.27 434.888 382.698 434.836 382.108 434.732C381.519 434.628 380.93 434.455 380.34 434.212C379.959 434.559 379.647 434.905 379.404 435.252C379.196 435.599 379.092 436.067 379.092 436.656C379.092 437.384 379.387 437.956 379.976 438.372C380.6 438.788 381.692 438.996 383.252 438.996H387.776C390.862 438.996 393.184 439.499 394.744 440.504C396.339 441.475 397.136 443.069 397.136 445.288C397.136 446.952 396.582 448.46 395.472 449.812C394.363 451.199 392.786 452.291 390.74 453.088C388.695 453.885 386.286 454.284 383.512 454.284ZM383.824 431.144C385.038 431.144 386.078 430.693 386.944 429.792C387.811 428.891 388.244 427.625 388.244 425.996C388.244 424.401 387.811 423.171 386.944 422.304C386.112 421.403 385.072 420.952 383.824 420.952C382.576 420.952 381.519 421.385 380.652 422.252C379.786 423.119 379.352 424.367 379.352 425.996C379.352 427.625 379.786 428.891 380.652 429.792C381.519 430.693 382.576 431.144 383.824 431.144ZM384.448 450.384C386.494 450.384 388.158 449.968 389.44 449.136C390.723 448.304 391.364 447.351 391.364 446.276C391.364 445.271 390.966 444.595 390.168 444.248C389.406 443.901 388.296 443.728 386.84 443.728H383.356C381.97 443.728 380.808 443.607 379.872 443.364C378.555 444.369 377.896 445.496 377.896 446.744C377.896 447.888 378.486 448.772 379.664 449.396C380.843 450.055 382.438 450.384 384.448 450.384ZM411.743 443.624C409.386 443.624 407.254 443.104 405.347 442.064C403.441 440.989 401.933 439.464 400.823 437.488C399.714 435.477 399.159 433.068 399.159 430.26C399.159 427.487 399.714 425.095 400.823 423.084C401.967 421.073 403.441 419.531 405.243 418.456C407.046 417.381 408.935 416.844 410.911 416.844C413.234 416.844 415.175 417.364 416.735 418.404C418.295 419.409 419.474 420.831 420.271 422.668C421.069 424.471 421.467 426.568 421.467 428.96C421.467 430.208 421.381 431.179 421.207 431.872H404.983C405.261 434.125 406.075 435.876 407.427 437.124C408.779 438.372 410.478 438.996 412.523 438.996C413.633 438.996 414.655 438.84 415.591 438.528C416.562 438.181 417.515 437.713 418.451 437.124L420.479 440.868C419.266 441.665 417.914 442.324 416.423 442.844C414.933 443.364 413.373 443.624 411.743 443.624ZM404.931 427.816H416.267C416.267 425.84 415.834 424.297 414.967 423.188C414.101 422.044 412.801 421.472 411.067 421.472C409.577 421.472 408.242 422.027 407.063 423.136C405.919 424.211 405.209 425.771 404.931 427.816ZM427.179 443V417.468H432.119L432.535 420.952H432.743C433.817 419.808 434.979 418.837 436.227 418.04C437.509 417.243 438.948 416.844 440.543 416.844C442.415 416.844 443.905 417.26 445.015 418.092C446.159 418.889 447.025 419.999 447.615 421.42C448.828 420.103 450.093 419.011 451.411 418.144C452.763 417.277 454.236 416.844 455.831 416.844C458.535 416.844 460.528 417.728 461.811 419.496C463.093 421.264 463.735 423.76 463.735 426.984V443H457.703V427.764C457.703 425.649 457.373 424.159 456.715 423.292C456.091 422.425 455.12 421.992 453.803 421.992C452.208 421.992 450.423 423.049 448.447 425.164V443H442.467V427.764C442.467 425.649 442.137 424.159 441.479 423.292C440.855 422.425 439.867 421.992 438.515 421.992C436.92 421.992 435.135 423.049 433.159 425.164V443H427.179ZM481.923 443.624C479.566 443.624 477.434 443.104 475.527 442.064C473.62 440.989 472.112 439.464 471.003 437.488C469.894 435.477 469.339 433.068 469.339 430.26C469.339 427.487 469.894 425.095 471.003 423.084C472.147 421.073 473.62 419.531 475.423 418.456C477.226 417.381 479.115 416.844 481.091 416.844C483.414 416.844 485.355 417.364 486.915 418.404C488.475 419.409 489.654 420.831 490.451 422.668C491.248 424.471 491.647 426.568 491.647 428.96C491.647 430.208 491.56 431.179 491.387 431.872H475.163C475.44 434.125 476.255 435.876 477.607 437.124C478.959 438.372 480.658 438.996 482.703 438.996C483.812 438.996 484.835 438.84 485.771 438.528C486.742 438.181 487.695 437.713 488.631 437.124L490.659 440.868C489.446 441.665 488.094 442.324 486.603 442.844C485.112 443.364 483.552 443.624 481.923 443.624ZM475.111 427.816H486.447C486.447 425.84 486.014 424.297 485.147 423.188C484.28 422.044 482.98 421.472 481.247 421.472C479.756 421.472 478.422 422.027 477.243 423.136C476.099 424.211 475.388 425.771 475.111 427.816ZM497.359 443V417.468H502.299L502.715 420.9H502.923C504.067 419.791 505.315 418.837 506.667 418.04C508.019 417.243 509.561 416.844 511.295 416.844C514.033 416.844 516.027 417.728 517.275 419.496C518.523 421.264 519.147 423.76 519.147 426.984V443H513.167V427.764C513.167 425.649 512.855 424.159 512.231 423.292C511.607 422.425 510.584 421.992 509.163 421.992C508.053 421.992 507.065 422.269 506.199 422.824C505.367 423.344 504.413 424.124 503.339 425.164V443H497.359ZM535.452 443.624C532.505 443.624 530.408 442.775 529.16 441.076C527.947 439.343 527.34 437.107 527.34 434.368V422.2H523.7V417.728L527.652 417.468L528.38 410.5H533.372V417.468H539.872V422.2H533.372V434.368C533.372 437.349 534.568 438.84 536.96 438.84C537.411 438.84 537.879 438.788 538.364 438.684C538.849 438.545 539.265 438.407 539.612 438.268L540.652 442.688C539.959 442.931 539.161 443.139 538.26 443.312C537.393 443.52 536.457 443.624 535.452 443.624ZM45.68 522V487.888H50.152L62.476 509.312L66.168 516.384H66.376C66.272 514.651 66.1507 512.865 66.012 511.028C65.908 509.156 65.856 507.319 65.856 505.516V487.888H69.964V522H65.492L53.116 500.524L49.424 493.504H49.216C49.3547 495.203 49.476 496.953 49.58 498.756C49.7187 500.559 49.788 502.361 49.788 504.164V522H45.68ZM84.756 522.624C82.6413 522.624 80.8733 522 79.452 520.752C78.0653 519.469 77.372 517.701 77.372 515.448C77.372 512.675 78.6026 510.56 81.064 509.104C83.56 507.613 87.4946 506.573 92.868 505.984C92.868 504.909 92.712 503.887 92.4 502.916C92.1226 501.945 91.6026 501.165 90.84 500.576C90.112 499.952 89.0546 499.64 87.668 499.64C86.212 499.64 84.8426 499.917 83.56 500.472C82.2773 501.027 81.1333 501.651 80.128 502.344L78.464 499.38C79.6426 498.617 81.0813 497.889 82.78 497.196C84.5133 496.468 86.3853 496.104 88.396 496.104C91.4813 496.104 93.7173 497.057 95.104 498.964C96.4906 500.836 97.184 503.349 97.184 506.504V522H93.648L93.284 518.984H93.128C91.9493 519.955 90.6493 520.804 89.228 521.532C87.8413 522.26 86.3506 522.624 84.756 522.624ZM86.004 519.192C87.2173 519.192 88.3613 518.897 89.436 518.308C90.5106 517.719 91.6546 516.887 92.868 515.812V508.792C88.6733 509.312 85.7266 510.092 84.028 511.132C82.364 512.172 81.532 513.507 81.532 515.136C81.532 516.557 81.9653 517.597 82.832 518.256C83.6986 518.88 84.756 519.192 86.004 519.192ZM105.135 522V496.728H108.671L109.035 500.368H109.191C110.3 499.155 111.514 498.149 112.831 497.352C114.148 496.52 115.552 496.104 117.043 496.104C118.984 496.104 120.492 496.537 121.567 497.404C122.676 498.236 123.491 499.415 124.011 500.94C125.328 499.519 126.663 498.357 128.015 497.456C129.367 496.555 130.806 496.104 132.331 496.104C134.931 496.104 136.855 496.953 138.103 498.652C139.386 500.316 140.027 502.76 140.027 505.984V522H135.763V506.556C135.763 504.199 135.382 502.483 134.619 501.408C133.856 500.333 132.678 499.796 131.083 499.796C129.211 499.796 127.096 501.096 124.739 503.696V522H120.475V506.556C120.475 504.199 120.094 502.483 119.331 501.408C118.568 500.333 117.372 499.796 115.743 499.796C113.871 499.796 111.756 501.096 109.399 503.696V522H105.135ZM158.492 522.624C156.239 522.624 154.194 522.104 152.356 521.064C150.519 519.989 149.063 518.464 147.988 516.488C146.914 514.512 146.376 512.155 146.376 509.416C146.376 506.643 146.914 504.268 147.988 502.292C149.098 500.316 150.519 498.791 152.252 497.716C153.986 496.641 155.806 496.104 157.712 496.104C160.936 496.104 163.415 497.179 165.148 499.328C166.916 501.477 167.8 504.355 167.8 507.96C167.8 508.411 167.783 508.861 167.748 509.312C167.748 509.728 167.714 510.092 167.644 510.404H150.588C150.762 513.073 151.594 515.205 153.084 516.8C154.61 518.395 156.586 519.192 159.012 519.192C160.226 519.192 161.335 519.019 162.34 518.672C163.38 518.291 164.368 517.805 165.304 517.216L166.812 520.024C165.738 520.717 164.507 521.324 163.12 521.844C161.768 522.364 160.226 522.624 158.492 522.624ZM150.536 507.336H164.056C164.056 504.771 163.502 502.829 162.392 501.512C161.318 500.16 159.792 499.484 157.816 499.484C156.048 499.484 154.454 500.177 153.032 501.564C151.646 502.916 150.814 504.84 150.536 507.336ZM173.265 530.84L172.225 528.344C173.716 527.685 174.877 526.801 175.709 525.692C176.541 524.617 176.94 523.387 176.905 522C176.836 522.035 176.749 522.052 176.645 522.052C176.541 522.052 176.455 522.052 176.385 522.052C175.553 522.052 174.825 521.809 174.201 521.324C173.612 520.804 173.317 520.059 173.317 519.088C173.317 518.152 173.629 517.424 174.253 516.904C174.877 516.349 175.623 516.072 176.489 516.072C177.599 516.072 178.465 516.523 179.089 517.424C179.748 518.325 180.077 519.556 180.077 521.116C180.077 523.335 179.471 525.276 178.257 526.94C177.044 528.639 175.38 529.939 173.265 530.84ZM197.821 522V487.888H202.137V518.308H217.061V522H197.821ZM231.912 522.624C229.867 522.624 227.943 522.104 226.14 521.064C224.372 520.024 222.934 518.516 221.824 516.54C220.75 514.564 220.212 512.189 220.212 509.416C220.212 506.573 220.75 504.164 221.824 502.188C222.934 500.212 224.372 498.704 226.14 497.664C227.943 496.624 229.867 496.104 231.912 496.104C233.992 496.104 235.916 496.624 237.684 497.664C239.452 498.704 240.874 500.212 241.948 502.188C243.058 504.164 243.612 506.573 243.612 509.416C243.612 512.189 243.058 514.564 241.948 516.54C240.874 518.516 239.452 520.024 237.684 521.064C235.916 522.104 233.992 522.624 231.912 522.624ZM231.912 519.088C234.096 519.088 235.847 518.204 237.164 516.436C238.516 514.633 239.192 512.293 239.192 509.416C239.192 506.504 238.516 504.147 237.164 502.344C235.847 500.541 234.096 499.64 231.912 499.64C229.763 499.64 228.012 500.541 226.66 502.344C225.308 504.147 224.632 506.504 224.632 509.416C224.632 512.293 225.308 514.633 226.66 516.436C228.012 518.204 229.763 519.088 231.912 519.088ZM260.252 522.624C258.033 522.624 256.023 522.104 254.22 521.064C252.417 520.024 250.996 518.516 249.956 516.54C248.916 514.564 248.396 512.189 248.396 509.416C248.396 506.573 248.951 504.164 250.06 502.188C251.204 500.212 252.695 498.704 254.532 497.664C256.404 496.624 258.415 496.104 260.564 496.104C262.228 496.104 263.649 496.399 264.828 496.988C266.041 497.577 267.081 498.271 267.948 499.068L265.764 501.876C265.036 501.217 264.256 500.68 263.424 500.264C262.627 499.848 261.725 499.64 260.72 499.64C259.195 499.64 257.825 500.056 256.612 500.888C255.433 501.685 254.497 502.829 253.804 504.32C253.145 505.776 252.816 507.475 252.816 509.416C252.816 512.293 253.527 514.633 254.948 516.436C256.404 518.204 258.293 519.088 260.616 519.088C261.795 519.088 262.887 518.845 263.892 518.36C264.897 517.84 265.781 517.233 266.544 516.54L268.416 519.4C267.272 520.405 266.007 521.203 264.62 521.792C263.233 522.347 261.777 522.624 260.252 522.624ZM279.299 522.624C277.184 522.624 275.416 522 273.995 520.752C272.608 519.469 271.915 517.701 271.915 515.448C271.915 512.675 273.146 510.56 275.607 509.104C278.103 507.613 282.038 506.573 287.411 505.984C287.411 504.909 287.255 503.887 286.943 502.916C286.666 501.945 286.146 501.165 285.383 500.576C284.655 499.952 283.598 499.64 282.211 499.64C280.755 499.64 279.386 499.917 278.103 500.472C276.82 501.027 275.676 501.651 274.671 502.344L273.007 499.38C274.186 498.617 275.624 497.889 277.323 497.196C279.056 496.468 280.928 496.104 282.939 496.104C286.024 496.104 288.26 497.057 289.647 498.964C291.034 500.836 291.727 503.349 291.727 506.504V522H288.191L287.827 518.984H287.671C286.492 519.955 285.192 520.804 283.771 521.532C282.384 522.26 280.894 522.624 279.299 522.624ZM280.547 519.192C281.76 519.192 282.904 518.897 283.979 518.308C285.054 517.719 286.198 516.887 287.411 515.812V508.792C283.216 509.312 280.27 510.092 278.571 511.132C276.907 512.172 276.075 513.507 276.075 515.136C276.075 516.557 276.508 517.597 277.375 518.256C278.242 518.88 279.299 519.192 280.547 519.192ZM306.923 522.624C304.219 522.624 302.33 521.844 301.255 520.284C300.215 518.724 299.695 516.696 299.695 514.2V500.212H295.951V496.988L299.903 496.728L300.423 489.656H304.011V496.728H310.823V500.212H304.011V514.252C304.011 515.812 304.288 517.025 304.843 517.892C305.432 518.724 306.455 519.14 307.911 519.14C308.362 519.14 308.847 519.071 309.367 518.932C309.887 518.759 310.355 518.603 310.771 518.464L311.603 521.688C310.91 521.931 310.147 522.139 309.315 522.312C308.518 522.52 307.72 522.624 306.923 522.624ZM316.537 522V496.728H320.801V522H316.537ZM318.721 491.528C317.889 491.528 317.196 491.285 316.641 490.8C316.121 490.28 315.861 489.587 315.861 488.72C315.861 487.888 316.121 487.212 316.641 486.692C317.196 486.172 317.889 485.912 318.721 485.912C319.553 485.912 320.229 486.172 320.749 486.692C321.304 487.212 321.581 487.888 321.581 488.72C321.581 489.587 321.304 490.28 320.749 490.8C320.229 491.285 319.553 491.528 318.721 491.528ZM339.162 522.624C337.117 522.624 335.193 522.104 333.39 521.064C331.622 520.024 330.184 518.516 329.074 516.54C328 514.564 327.462 512.189 327.462 509.416C327.462 506.573 328 504.164 329.074 502.188C330.184 500.212 331.622 498.704 333.39 497.664C335.193 496.624 337.117 496.104 339.162 496.104C341.242 496.104 343.166 496.624 344.934 497.664C346.702 498.704 348.124 500.212 349.198 502.188C350.308 504.164 350.862 506.573 350.862 509.416C350.862 512.189 350.308 514.564 349.198 516.54C348.124 518.516 346.702 520.024 344.934 521.064C343.166 522.104 341.242 522.624 339.162 522.624ZM339.162 519.088C341.346 519.088 343.097 518.204 344.414 516.436C345.766 514.633 346.442 512.293 346.442 509.416C346.442 506.504 345.766 504.147 344.414 502.344C343.097 500.541 341.346 499.64 339.162 499.64C337.013 499.64 335.262 500.541 333.91 502.344C332.558 504.147 331.882 506.504 331.882 509.416C331.882 512.293 332.558 514.633 333.91 516.436C335.262 518.204 337.013 519.088 339.162 519.088ZM357.518 522V496.728H361.054L361.418 500.368H361.574C362.787 499.155 364.07 498.149 365.422 497.352C366.774 496.52 368.317 496.104 370.05 496.104C372.719 496.104 374.661 496.953 375.874 498.652C377.122 500.316 377.746 502.76 377.746 505.984V522H373.482V506.556C373.482 504.199 373.101 502.483 372.338 501.408C371.575 500.333 370.362 499.796 368.698 499.796C367.415 499.796 366.254 500.125 365.214 500.784C364.209 501.443 363.065 502.413 361.782 503.696V522H357.518Z" fill="white"/>
<line x1="43" y1="458.5" x2="203" y2="458.5" stroke="white" stroke-width="5"/>
</svg>
